<?xml version="1.0" encoding="utf-8"?>
<!-- Generator: Adobe Illustrator 22.0.1, SVG Export Plug-In . SVG Version: 6.00 Build 0)  -->
<svg version="1.1" xmlns="http://www.w3.org/2000/svg" xmlns:xlink="http://www.w3.org/1999/xlink" x="0px" y="0px"
	 viewBox="0 0 311.3 260.5" style="enable-background:new 0 0 311.3 260.5;" xml:space="preserve">
<style type="text/css">
	.st0{fill:url(#SVGID_1_);}
	.st1{fill:url(#SVGID_2_);}
	.st2{fill:url(#SVGID_3_);}
	.st3{fill:#4B1A75;}
	.st4{fill:#FFFFFF;}
</style>
<g id="BACKGROUND">
</g>
<g id="OBJECTS">
	<g>
		<linearGradient id="SVGID_1_" gradientUnits="userSpaceOnUse" x1="164.3308" y1="196.5692" x2="248.6334" y2="112.2666">
			<stop  offset="1.050435e-02" style="stop-color:#74AFD7"/>
			<stop  offset="0.1158" style="stop-color:#6DA5CE"/>
			<stop  offset="0.3194" style="stop-color:#5A8CB7"/>
			<stop  offset="0.5978" style="stop-color:#3D6795"/>
			<stop  offset="0.8333" style="stop-color:#0F497C"/>
		</linearGradient>
		<path class="st0" d="M260.7,132l-7.6-1c0,0,2,11-12.5,11.8c-14.5,0.8-74.2,0.2-74.2,0.2l-20.5,35l86.6-2c0,0,0.1-0.1,0.1-0.1
			c1.3-1.3,3.2-2.1,5-2.1h1.1c0,0,0.1,0,0.1,0l22-28.9c0-2.2,0.6-4.4,0.6-6.7C261.2,136.2,261,134.1,260.7,132z"/>
		<linearGradient id="SVGID_2_" gradientUnits="userSpaceOnUse" x1="180.1649" y1="33.0705" x2="232.3133" y2="85.2188">
			<stop  offset="1.196620e-02" style="stop-color:#0F497C"/>
			<stop  offset="7.552786e-02" style="stop-color:#194D7F"/>
			<stop  offset="0.1678" style="stop-color:#2A5787"/>
			<stop  offset="0.2776" style="stop-color:#3C6694"/>
			<stop  offset="0.4008" style="stop-color:#517FAB"/>
			<stop  offset="0.5337" style="stop-color:#6AA2CB"/>
			<stop  offset="0.578" style="stop-color:#74AFD7"/>
		</linearGradient>
		<path class="st1" d="M161.9,85.8c0,0-2.2-6.3,3.4-8c5.6-1.6,73.9,0.5,73.9,0.5l21.7-35.8l-92.3,2C168.7,44.6,150,78.9,161.9,85.8z
			"/>
		<linearGradient id="SVGID_3_" gradientUnits="userSpaceOnUse" x1="126.1124" y1="110.2844" x2="263.3715" y2="110.2844">
			<stop  offset="2.479847e-04" style="stop-color:#092E5E"/>
			<stop  offset="0.1375" style="stop-color:#093866"/>
			<stop  offset="0.4004" style="stop-color:#0D4C7A"/>
			<stop  offset="0.7582" style="stop-color:#15679C"/>
			<stop  offset="1" style="stop-color:#197EB9"/>
		</linearGradient>
		<path class="st2" d="M224.1,88.5l-58.6,0.5c0,0-21.8-12.8,18.9-33.4c17-8.6,34.8-12.6,74.9-13l-97,0.7c0,0-34.6-0.2-36.2,39.5
			c-1.6,39.8,39.1,40.7,39.1,40.7h58.9c0,0,19.6,8,4.2,25.5c-13.8,15.7-36.7,24-82.1,27.8c-0.1,0.4-0.3,0.8-0.5,1.2l78,0.1
			c0,0,33.5-0.9,39.5-38.4l0.2-11C263.4,128.7,261.9,93.7,224.1,88.5z"/>
	</g>
	<g>
		<path class="st3" d="M84.5,40H38.3c-10,0-18.2,7.6-18.2,16.8v5.9c0,9.3,8.2,16.8,18.2,16.8h34.9l-3.9-13.4c-3-10.3,2-21.6,11.1-25
			c1.3-0.5,2.7-0.8,4-0.9C84.4,40.1,84.5,40.1,84.5,40z"/>
		<path class="st3" d="M241.7,181H135.2L99.3,53.5c-2.2-7.8-8.2-12.9-14.8-13.5c-0.6,0-1.2-0.1-1.7-0.1c-1.6,0.1-3.1,0.4-4.7,1
			c-8.8,3.4-13.6,14.6-10.7,25l3.8,13.4l34.3,121.9c0.8,4.2,3.3,7.8,6.6,10.2c3.3,2.7,7.4,3.9,11.6,3.3h118.1
			c9.3,0,16.8-7.6,16.8-16.8v0C258.5,188.6,250.9,181,241.7,181z"/>
	</g>
	<g>
		<circle class="st3" cx="148.5" cy="224.3" r="19.1"/>
		<circle class="st4" cx="148.5" cy="224.3" r="7.8"/>
	</g>
	<g>
		<circle class="st3" cx="221.6" cy="224.3" r="19.1"/>
		<circle class="st4" cx="221.6" cy="224.3" r="7.8"/>
	</g>
</g>
</svg>
