<?xml version="1.0" encoding="utf-8"?>
<!-- Generator: Adobe Illustrator 22.0.1, SVG Export Plug-In . SVG Version: 6.00 Build 0)  -->
<svg version="1.1" xmlns="http://www.w3.org/2000/svg" xmlns:xlink="http://www.w3.org/1999/xlink" x="0px" y="0px"
	 viewBox="0 0 500 260.5" style="enable-background:new 0 0 500 260.5;" xml:space="preserve">
<style type="text/css">
	.st0{fill:url(#SVGID_1_);}
	.st1{fill:url(#SVGID_2_);}
	.st2{fill:url(#SVGID_3_);}
	.st3{fill:#4B1A75;}
	.st4{fill:#FFFFFF;}
	.st5{fill:url(#SVGID_4_);}
	.st6{fill:url(#SVGID_5_);}
	.st7{fill:url(#SVGID_6_);}
</style>
<g id="BACKGROUND">
</g>
<g id="OBJECTS">
	<g>
		<linearGradient id="SVGID_1_" gradientUnits="userSpaceOnUse" x1="164.3308" y1="196.5692" x2="248.6334" y2="112.2666">
			<stop  offset="1.050435e-02" style="stop-color:#74AFD7"/>
			<stop  offset="0.1158" style="stop-color:#6DA5CE"/>
			<stop  offset="0.3194" style="stop-color:#5A8CB7"/>
			<stop  offset="0.5978" style="stop-color:#3D6795"/>
			<stop  offset="0.8333" style="stop-color:#0F497C"/>
		</linearGradient>
		<path class="st0" d="M260.7,132l-7.6-1c0,0,2,11-12.5,11.8c-14.5,0.8-74.2,0.2-74.2,0.2l-20.5,35l86.6-2c0,0,0.1-0.1,0.1-0.1
			c1.3-1.3,3.2-2.1,5-2.1h1.1c0,0,0.1,0,0.1,0l22-28.9c0-2.2,0.6-4.4,0.6-6.7C261.2,136.2,261,134.1,260.7,132z"/>
		<linearGradient id="SVGID_2_" gradientUnits="userSpaceOnUse" x1="180.1649" y1="33.0705" x2="232.3133" y2="85.2188">
			<stop  offset="1.196620e-02" style="stop-color:#0F497C"/>
			<stop  offset="7.552786e-02" style="stop-color:#194D7F"/>
			<stop  offset="0.1678" style="stop-color:#2A5787"/>
			<stop  offset="0.2776" style="stop-color:#3C6694"/>
			<stop  offset="0.4008" style="stop-color:#517FAB"/>
			<stop  offset="0.5337" style="stop-color:#6AA2CB"/>
			<stop  offset="0.578" style="stop-color:#74AFD7"/>
		</linearGradient>
		<path class="st1" d="M161.9,85.8c0,0-2.2-6.3,3.4-8c5.6-1.6,73.9,0.5,73.9,0.5l21.7-35.8l-92.3,2C168.7,44.6,150,78.9,161.9,85.8z
			"/>
		<linearGradient id="SVGID_3_" gradientUnits="userSpaceOnUse" x1="126.1124" y1="110.2844" x2="263.3715" y2="110.2844">
			<stop  offset="2.479847e-04" style="stop-color:#092E5E"/>
			<stop  offset="0.1375" style="stop-color:#093866"/>
			<stop  offset="0.4004" style="stop-color:#0D4C7A"/>
			<stop  offset="0.7582" style="stop-color:#15679C"/>
			<stop  offset="1" style="stop-color:#197EB9"/>
		</linearGradient>
		<path class="st2" d="M224.1,88.5l-58.6,0.5c0,0-21.8-12.8,18.9-33.4c17-8.6,34.8-12.6,74.9-13l-97,0.7c0,0-34.6-0.2-36.2,39.5
			c-1.6,39.8,39.1,40.7,39.1,40.7h58.9c0,0,19.6,8,4.2,25.5c-13.8,15.7-36.7,24-82.1,27.8c-0.1,0.4-0.3,0.8-0.5,1.2l78,0.1
			c0,0,33.5-0.9,39.5-38.4l0.2-11C263.4,128.7,261.9,93.7,224.1,88.5z"/>
	</g>
	<g>
		<path class="st3" d="M84.5,40H38.3c-10,0-18.2,7.6-18.2,16.8v5.9c0,9.3,8.2,16.8,18.2,16.8h34.9l-3.9-13.4c-3-10.3,2-21.6,11.1-25
			c1.3-0.5,2.7-0.8,4-0.9C84.4,40.1,84.5,40.1,84.5,40z"/>
		<path class="st3" d="M241.7,181H135.2L99.3,53.5c-2.2-7.8-8.2-12.9-14.8-13.5c-0.6,0-1.2-0.1-1.7-0.1c-1.6,0.1-3.1,0.4-4.7,1
			c-8.8,3.4-13.6,14.6-10.7,25l3.8,13.4l34.3,121.9c0.8,4.2,3.3,7.8,6.6,10.2c3.3,2.7,7.4,3.9,11.6,3.3h118.1
			c9.3,0,16.8-7.6,16.8-16.8v0C258.5,188.6,250.9,181,241.7,181z"/>
	</g>
	<g>
		<circle class="st3" cx="148.5" cy="224.3" r="19.1"/>
		<circle class="st4" cx="148.5" cy="224.3" r="7.8"/>
	</g>
	<g>
		<circle class="st3" cx="221.6" cy="224.3" r="19.1"/>
		<circle class="st4" cx="221.6" cy="224.3" r="7.8"/>
	</g>
	<g>
		<linearGradient id="SVGID_4_" gradientUnits="userSpaceOnUse" x1="278.1341" y1="134.3478" x2="333.6659" y2="134.3478">
			<stop  offset="2.479847e-04" style="stop-color:#092E5E"/>
			<stop  offset="0.1375" style="stop-color:#093866"/>
			<stop  offset="0.4004" style="stop-color:#0D4C7A"/>
			<stop  offset="0.7582" style="stop-color:#15679C"/>
			<stop  offset="1" style="stop-color:#197EB9"/>
		</linearGradient>
		<path class="st5" d="M296.9,155.1c0,4.4,1.9,6.3,6.7,6.3h29.2l0.9,14.3c-11.4,1.2-23.9,1.4-36,1.4c-13.7,0-19.5-7.7-19.5-18.1
			V91.6h18.8V155.1z"/>
		<linearGradient id="SVGID_5_" gradientUnits="userSpaceOnUse" x1="344.0329" y1="134.1628" x2="362.7911" y2="134.1628">
			<stop  offset="2.479847e-04" style="stop-color:#092E5E"/>
			<stop  offset="0.1375" style="stop-color:#093866"/>
			<stop  offset="0.4004" style="stop-color:#0D4C7A"/>
			<stop  offset="0.7582" style="stop-color:#15679C"/>
			<stop  offset="1" style="stop-color:#197EB9"/>
		</linearGradient>
		<path class="st6" d="M344,176.7V91.6h18.8v85.1H344z"/>
		<linearGradient id="SVGID_6_" gradientUnits="userSpaceOnUse" x1="378.4636" y1="134.1628" x2="476.9391" y2="134.1628">
			<stop  offset="2.479847e-04" style="stop-color:#092E5E"/>
			<stop  offset="0.1375" style="stop-color:#093866"/>
			<stop  offset="0.4004" style="stop-color:#0D4C7A"/>
			<stop  offset="0.7582" style="stop-color:#15679C"/>
			<stop  offset="1" style="stop-color:#197EB9"/>
		</linearGradient>
		<path class="st7" d="M466.6,91.6c4.6,0,6.9,2.5,7,7l3.3,78.1h-17.8l-2.8-70.5h-2.1L441.4,159c-0.9,4.1-3.5,6-7.6,6h-12.3
			c-4.2,0-6.8-2-7.7-6l-13-52.7h-2.1l-2.5,70.5h-17.8l3.1-78.1c0.2-4.6,2.5-7,7-7h18.1c4.1,0,6.5,2.1,7.4,6l10.4,42.5
			c1,4.1,1.6,8,2.2,12h1.6c0.7-3.9,1.4-7.9,2.2-12l10.2-42.5c1-3.9,3.5-6,7.7-6H466.6z"/>
	</g>
	<g>
		<path class="st3" d="M290,57.4l-0.3,2.7c-1.5-0.1-3.6-0.1-5.5-0.1c-1.9,0-2.5,0.1-2.5,1.6c0,1.2,0.5,1.6,1.8,2l3.3,1.1
			c2.8,1,3.7,2.6,3.7,5.2c0,4-1.7,5.1-6.5,5.1c-1.1,0-3.3-0.1-6-0.7l0.2-2.8c3.3,0.1,4.7,0.1,5.8,0.1c2,0,2.6-0.3,2.6-1.7
			c0-1.2-0.5-1.6-1.7-1.9l-3.5-1.2c-2.7-1-3.6-2.5-3.6-5.2c0-4,1.9-4.9,6.4-4.9C286,56.7,288.1,56.8,290,57.4z"/>
		<path class="st3" d="M307.3,67.6c0,5.4-1.8,7.3-6.9,7.3c-5.3,0-7.2-2-7.2-7.3V57h3.9v10.6c0,3.2,0.8,4.2,3.2,4.2
			c2.3,0,3.1-1,3.1-4.2V57h3.9V67.6z"/>
		<path class="st3" d="M323.9,62.5c0,4.5-1.6,5.8-5.9,5.8c-1.1,0-2.3-0.1-3.3-0.2v6.5h-3.9V57c2.1-0.2,3.5-0.2,6.7-0.2
			C322.3,56.8,323.9,58,323.9,62.5z M317.4,65.3c2,0,2.6-0.6,2.6-2.8c0-2.2-0.6-2.8-2.6-2.8h-2.7v5.5H317.4z"/>
		<path class="st3" d="M338.3,74.4c-2.4,0.3-5.4,0.3-8.2,0.3c-2.3,0-3.9-1.4-3.9-3.5V60.5c0-2.2,1.5-3.5,3.9-3.5
			c2.7,0,5.8,0,8.2,0.3l-0.2,2.9h-6.8c-0.8,0-1.2,0.4-1.2,1.3V64h7v2.8h-7v3.4c0,0.9,0.4,1.3,1.2,1.3h6.8L338.3,74.4z"/>
		<path class="st3" d="M350.9,74.6l-1.3-5.4c-0.3-1.1-0.8-1.5-1.9-1.5h-2.7v6.9h-3.8V57c2.1-0.2,3.5-0.2,6.7-0.2
			c4.6,0,6.5,1.2,6.5,5.2c0,2.5-0.9,4.1-3.4,4.4v0.1c0.9,0.2,2.1,0.8,2.5,2.7l1.5,5.5H350.9z M347.7,64.7c2,0,2.7-0.6,2.7-2.5
			c0-2-0.6-2.5-2.7-2.5l-2.8,0v4.9H347.7z"/>
		<path class="st3" d="M375.4,57c0.9,0,1.4,0.5,1.5,1.5l0.7,16.1h-3.7L373.3,60h-0.4l-2.7,10.9c-0.2,0.8-0.7,1.2-1.6,1.2H366
			c-0.9,0-1.4-0.4-1.6-1.2L361.8,60h-0.4l-0.5,14.6h-3.7l0.6-16.1c0.1-0.9,0.5-1.5,1.5-1.5h3.7c0.8,0,1.4,0.4,1.5,1.2l2.1,8.8
			c0.2,0.8,0.3,1.7,0.5,2.5h0.3c0.2-0.8,0.3-1.6,0.5-2.5l2.1-8.8c0.2-0.8,0.7-1.2,1.6-1.2H375.4z"/>
		<path class="st3" d="M392.6,74.4c-2.4,0.3-5.4,0.3-8.2,0.3c-2.3,0-3.9-1.4-3.9-3.5V60.5c0-2.2,1.5-3.5,3.9-3.5
			c2.7,0,5.8,0,8.2,0.3l-0.2,2.9h-6.8c-0.8,0-1.2,0.4-1.2,1.3V64h7v2.8h-7v3.4c0,0.9,0.4,1.3,1.2,1.3h6.8L392.6,74.4z"/>
		<path class="st3" d="M405.2,74.6l-1.3-5.4c-0.3-1.1-0.8-1.5-1.9-1.5h-2.7v6.9h-3.8V57c2.1-0.2,3.5-0.2,6.7-0.2
			c4.6,0,6.5,1.2,6.5,5.2c0,2.5-0.9,4.1-3.4,4.4v0.1c0.9,0.2,2.1,0.8,2.5,2.7l1.5,5.5H405.2z M402,64.7c2,0,2.7-0.6,2.7-2.5
			c0-2-0.6-2.5-2.7-2.5l-2.8,0v4.9H402z"/>
		<path class="st3" d="M423.8,57.3l-0.3,2.9c-1.7-0.1-2.7-0.1-4.9-0.1c-2.5,0-3.3,1.3-3.3,5.7c0,4.4,0.8,5.7,3.3,5.7
			c2.3,0,3.7,0,5.3-0.2l0.3,2.9c-1.6,0.5-3.1,0.7-5.6,0.7c-5.4,0-7.4-2.4-7.4-9.1c0-6.7,2-9.1,7.4-9.1
			C421,56.7,422.2,56.9,423.8,57.3z"/>
		<path class="st3" d="M430.2,70l-1.3,4.6h-4L430,58c0.2-0.6,0.7-1,1.4-1h3.7c0.7,0,1.2,0.4,1.4,1l5.1,16.6h-4l-1.3-4.6H430.2z
			 M433.9,61.6c-0.1-0.5-0.3-1.1-0.4-1.7h-0.7l-0.4,1.7L431,67h4.4L433.9,61.6z"/>
		<path class="st3" d="M457.6,65.8c0,7-2,9-7.5,9c-2.7,0-4.8-0.1-6.8-0.2V57c2-0.1,4.2-0.2,6.8-0.2
			C455.6,56.8,457.6,58.8,457.6,65.8z M453.5,65.8c0-4.6-0.8-6-3.4-6c-1.1,0-2.1,0-3,0v11.9c0.9,0,1.9,0,3,0
			C452.7,71.8,453.5,70.4,453.5,65.8z"/>
		<path class="st3" d="M475.1,65.8c0,7.1-2,9.1-7.5,9.1c-5.6,0-7.5-2.1-7.5-9.1c0-7.1,2-9.1,7.5-9.1
			C473.1,56.7,475.1,58.7,475.1,65.8z M464.1,65.8c0,4.7,0.8,6,3.4,6s3.4-1.3,3.4-6c0-4.7-0.8-6-3.4-6S464.1,61.1,464.1,65.8z"/>
	</g>
</g>
</svg>
